<?xml version="1.0" encoding="utf-8"?>
<!-- Generator: Adobe Illustrator 16.0.0, SVG Export Plug-In . SVG Version: 6.00 Build 0)  -->
<!DOCTYPE svg PUBLIC "-//W3C//DTD SVG 1.1//EN" "http://www.w3.org/Graphics/SVG/1.1/DTD/svg11.dtd">
<svg version="1.1" id="Layer_1" xmlns="http://www.w3.org/2000/svg" xmlns:xlink="http://www.w3.org/1999/xlink" x="0px" y="0px"
	 width="60.71px" height="62.821px" viewBox="0 0 60.71 62.821" enable-background="new 0 0 60.71 62.821" xml:space="preserve">
<path fill-rule="evenodd" clip-rule="evenodd" fill="#D0142C" d="M59.209,32.155c-2.408-0.275-2.42-0.276-1.889-2.587
	c0.627-2.721,1.295-5.433,1.906-8.158c0.27-1.206,0.004-1.479-1.203-1.191c-1.396,0.332-2.748,0.879-4.154,1.149
	c-3.652,0.702-2.631,1.423-4.371-2.051c-0.107-0.214-0.186-0.444-0.301-0.654c-0.641-1.165-0.812-1.238-1.707-0.298
	c-1.82,1.907-3.562,3.885-5.354,5.819c-0.486,0.524-0.945,1.086-1.635,1.381c-0.848,0.361-1.238,0.143-1.205-0.737
	c0.014-0.396,0.109-0.79,0.191-1.179c1.002-4.761,2.014-9.52,3.012-14.282c0.109-0.515,0.17-1.395-0.275-1.606
	c-0.447-0.211-2.445,0.997-3.688,1.52c-2.562,1.081-2.564,1.086-3.873-1.444C33.313,5.225,31.284,0,30.625,0
	c-0.659,0-1.246,1.25-1.607,1.945c-1.032,1.985-2.048,3.979-3.066,5.973c-1.281,2.509-1.271,2.49-3.95,1.366
	c-1.154-0.484-3.054-1.541-3.576-1.169s-0.153,1.562,0.011,2.333c0.862,4.058,1.782,8.105,2.52,12.185
	c0.178,0.981,0.884,2.666,0.061,3.004c-1.157,0.476-1.847-0.915-2.614-1.671c-2.098-2.066-5.672-6.812-6.273-6.677
	s-1.172,2.426-1.593,3.539c-0.387,1.023-0.936,1.327-2.016,0.987c-1.901-0.598-3.834-1.106-5.771-1.58
	c-1.182-0.289-1.459,0.014-1.265,1.225c0.088,0.55,0.261,1.086,0.392,1.629c0.596,2.483,1.177,4.969,1.792,7.448
	c0.252,1.017-0.083,1.484-1.141,1.579C1.718,32.186,0,31.736,0,32.729c0,1.07,9.457,8.18,13.688,11.712
	c1.729,1.443,1.747,1.419,0.889,3.553c-0.434,1.079-1.427,3.092-1.113,3.512c0.314,0.418,1.497,0.27,2.189,0.158
	c4.33-0.701,8.684-1.783,13.005-2.533c0.066-0.012,0.131-0.018,0.197-0.029v13.72h3v-13.76c3.19,0.545,6.406,1.507,9.609,1.925
	c1.896,0.248,5.25,0.832,5.75,0.197s-0.756-2.254-1.143-3.293c-0.754-2.023-0.781-2.051,0.863-3.438
	c3.479-2.937,6.988-5.837,10.477-8.762c1.119-0.938,3.225-2.361,3.295-2.845S59.674,32.208,59.209,32.155z"/>
</svg>
