<?xml version="1.0" encoding="utf-8"?>
<!-- Generator: Adobe Illustrator 16.0.0, SVG Export Plug-In . SVG Version: 6.00 Build 0)  -->
<!DOCTYPE svg PUBLIC "-//W3C//DTD SVG 1.1//EN" "http://www.w3.org/Graphics/SVG/1.1/DTD/svg11.dtd">
<svg version="1.1" id="Layer_1" xmlns="http://www.w3.org/2000/svg" xmlns:xlink="http://www.w3.org/1999/xlink" x="0px" y="0px"
	 width="141.29px" height="120.529px" viewBox="-20.645 -10.265 141.29 120.529"
	 enable-background="new -20.645 -10.265 141.29 120.529" xml:space="preserve">
<g>
	<g>
		<rect x="-20.645" y="-10.265" fill="#D1D3D4" width="98.468" height="68.999"/>
		<g>
			<path fill="#00A8E1" d="M42.644,15.332v17.805c0,0.644-0.229,1.196-0.688,1.655c-0.458,0.459-1.01,0.688-1.654,0.688H16.876
				c-0.645,0-1.196-0.228-1.655-0.688c-0.459-0.458-0.688-1.011-0.688-1.655V15.332c0-0.644,0.229-1.196,0.688-1.654
				c0.458-0.458,1.01-0.688,1.655-0.688h23.425c0.645,0,1.196,0.229,1.654,0.688C42.415,14.137,42.644,14.688,42.644,15.332z
				 M40.301,14.864H16.876c-0.128,0-0.237,0.045-0.33,0.139c-0.093,0.092-0.14,0.203-0.14,0.329v17.805
				c0,0.126,0.046,0.237,0.14,0.33c0.092,0.093,0.202,0.14,0.33,0.14h23.425c0.126,0,0.237-0.046,0.329-0.14
				c0.092-0.092,0.14-0.203,0.14-0.33V15.332c0-0.126-0.047-0.237-0.14-0.329C40.539,14.909,40.429,14.864,40.301,14.864z
				 M23.083,17.558c0.546,0.547,0.82,1.211,0.82,1.991c0,0.78-0.273,1.444-0.82,1.991c-0.546,0.546-1.21,0.82-1.99,0.82
				c-0.781,0-1.445-0.273-1.992-0.82c-0.546-0.547-0.819-1.211-0.819-1.991c0-0.779,0.273-1.443,0.819-1.991
				c0.546-0.545,1.211-0.82,1.992-0.82C21.873,16.738,22.537,17.011,23.083,17.558z M38.896,25.17v6.559H18.282v-2.812l4.685-4.685
				l2.343,2.341l7.497-7.496L38.896,25.17z"/>
		</g>
	</g>
	<g>
		<rect x="22.176" y="41.267" fill="#808285" width="98.468" height="68.998"/>
		<rect x="22.539" y="55.228" fill="#231F20" width="97.75" height="41.328"/>
		
			<line fill="none" stroke="#A7A9AC" stroke-width="0.7187" stroke-miterlimit="10" x1="24.335" y1="93.948" x2="118.491" y2="93.948"/>
		
			<line fill="none" stroke="#00A8E1" stroke-width="0.7187" stroke-miterlimit="10" x1="24.335" y1="93.948" x2="40.866" y2="93.948"/>
		
			<line fill="none" stroke="#00A8E1" stroke-width="0.7187" stroke-miterlimit="10" x1="41.046" y1="92.243" x2="41.046" y2="95.837"/>
		<g>
			<g>
				<path fill="#00A8E1" d="M84.289,67.946v15.64c0,0.399-0.186,0.685-0.56,0.848c-0.125,0.049-0.245,0.071-0.361,0.071
					c-0.26,0-0.473-0.09-0.646-0.272l-5.792-5.792v2.387c0,1.142-0.404,2.115-1.216,2.926c-0.809,0.807-1.783,1.214-2.926,1.214
					H62.671c-1.14,0-2.115-0.405-2.926-1.214c-0.807-0.811-1.213-1.784-1.213-2.926V70.709c0-1.14,0.404-2.117,1.213-2.926
					c0.811-0.809,1.786-1.216,2.926-1.216h10.118c1.143,0,2.117,0.407,2.926,1.216c0.81,0.809,1.216,1.786,1.216,2.926v2.372
					l5.792-5.78c0.173-0.182,0.388-0.272,0.646-0.272c0.116,0,0.236,0.022,0.361,0.072C84.104,67.263,84.289,67.546,84.289,67.946z"
					/>
			</g>
			<g>
				<path fill="#FFFFFF" d="M60.994,79.14l1.081-6.845h1.842l-0.424,2.642h2.393l0.417-2.642h1.847l-1.085,6.848h-1.848l0.441-2.796
					h-2.387l-0.44,2.796h-1.837V79.14z"/>
				<path fill="#FFFFFF" d="M68.524,79.14l1.071-6.846h1.178c0.879,0,1.508,0.023,1.884,0.074c0.376,0.046,0.683,0.132,0.912,0.25
					c0.51,0.255,0.898,0.63,1.164,1.126c0.269,0.491,0.4,1.078,0.4,1.759c0,0.658-0.121,1.233-0.356,1.725
					c-0.242,0.493-0.604,0.911-1.09,1.256c-0.341,0.235-0.748,0.404-1.221,0.506c-0.471,0.103-1.258,0.15-2.361,0.15h-0.259H68.524z
					 M70.601,77.618c0.128,0.007,0.224,0.014,0.282,0.017c0.062,0,0.118,0.003,0.171,0.003c0.733,0,1.289-0.186,1.671-0.553
					c0.381-0.369,0.568-0.907,0.568-1.619c0-0.579-0.139-1.001-0.415-1.265s-0.728-0.396-1.35-0.396h-0.345L70.601,77.618z"/>
			</g>
		</g>
	</g>
</g>
</svg>
