<?xml version="1.0" encoding="utf-8"?>
<!-- Generator: Adobe Illustrator 16.0.0, SVG Export Plug-In . SVG Version: 6.00 Build 0)  -->
<!DOCTYPE svg PUBLIC "-//W3C//DTD SVG 1.1//EN" "http://www.w3.org/Graphics/SVG/1.1/DTD/svg11.dtd">
<svg version="1.1" xmlns="http://www.w3.org/2000/svg" xmlns:xlink="http://www.w3.org/1999/xlink" x="0px" y="0px" width="200px"
	 height="83.457px" viewBox="0 0 200 83.457" enable-background="new 0 0 200 83.457" xml:space="preserve">
<g id="Layer_2" display="none">
	<rect x="-286.038" y="-174.863" display="inline" fill="#00AEEF" width="772.076" height="441.186"/>
</g>
<g id="shadow">
	<ellipse opacity="0.2" fill="#231F20" cx="94.392" cy="47.949" rx="8.718" ry="1.524"/>
	<g display="none">
		<g display="inline" opacity="0.8">
			<path fill="#231F20" d="M45.414,60.676c-0.331-0.192-0.8-0.443-1.406-0.753c-1.716-0.881-2.573-1.678-2.573-2.389
				c0-0.572,0.229-1.056,0.686-1.451c0.458-0.396,1.03-0.593,1.715-0.593c0.629,0,1.316,0.188,2.058,0.566
				c0.745,0.378,1.568,0.957,2.473,1.735l2.88-4.965c-1.144-0.962-2.358-1.688-3.646-2.181c-1.285-0.493-2.626-0.739-4.023-0.739
				c-2.64,0-4.799,0.791-6.476,2.373c-1.673,1.578-2.513,3.611-2.513,6.098c0,1.361,0.367,2.519,1.1,3.471
				c0.731,0.948,2.086,1.941,4.066,2.969c0.114,0.06,0.268,0.139,0.462,0.241c2.035,1.064,3.055,2.056,3.055,2.972
				c0,0.676-0.253,1.221-0.756,1.634c-0.502,0.409-1.178,0.619-2.024,0.619c-1.019,0-2.004-0.261-2.959-0.775
				c-0.955-0.516-1.958-1.34-3.012-2.473l-3.481,5.033c1.178,1.408,2.498,2.47,3.962,3.187c1.463,0.716,3.036,1.073,4.718,1.073
				c3.202,0,5.736-0.804,7.599-2.41c1.864-1.613,2.796-3.763,2.796-6.453c0-1.524-0.341-2.792-1.027-3.808
				C48.4,62.644,47.176,61.651,45.414,60.676z"/>
			<path fill="#231F20" d="M90.604,50.543l-4.46,6.355c-0.113,0.171-0.264,0.455-0.454,0.851c-0.189,0.395-0.438,0.954-0.748,1.674
				c-0.149-0.468-0.299-0.912-0.455-1.332c-0.152-0.417-0.304-0.792-0.453-1.122l-2.745-6.426h-3.722h-3.758h-4.923L59.33,61.056
				l1.699-10.513h-6.727l-3.961,25.149h6.673l1.751-11.081l7.034,11.081h7.94l-8.542-12.729l9.88-9.92l5.799,11.431l-1.766,11.219
				h6.759l1.75-11.149l10.723-14H90.604z"/>
			<path fill="#231F20" d="M168.666,50.543h-7.412l-4.493,9.878c-0.389,0.87-0.689,1.596-0.9,2.172
				c-0.212,0.58-0.383,1.121-0.506,1.624c-0.081-0.709-0.164-1.396-0.249-2.054c-0.087-0.657-0.181-1.285-0.283-1.881l-1.683-9.739
				h-7.462l-6.382,20.882l-4.428-20.882h-8.406L114.379,74.71l0.921-5.734c-1.042,0.438-2.033,0.76-2.977,0.979
				c-0.942,0.218-1.861,0.328-2.754,0.328c-2.068,0-3.671-0.56-4.803-1.676c-1.133-1.118-1.698-2.695-1.698-4.735
				c0-2.255,0.674-4.109,2.024-5.565c1.35-1.453,3.066-2.181,5.146-2.181c1.223,0,2.401,0.216,3.535,0.645
				c1.131,0.43,2.178,1.064,3.14,1.899l1.131-6.941c-1.188-0.596-2.407-1.041-3.655-1.34c-1.245-0.298-2.532-0.446-3.858-0.446
				c-2.332,0-4.439,0.405-6.322,1.217c-1.882,0.813-3.452,1.989-4.709,3.522c-1.077,1.318-1.892,2.781-2.446,4.391
				c-0.554,1.608-0.831,3.302-0.831,5.072c0,3.678,1.078,6.628,3.233,8.85c2.156,2.222,5.023,3.333,8.604,3.333
				c1.201,0,2.318-0.072,3.354-0.215c0.918-0.127,1.756-0.313,2.535-0.544l-0.062,0.124h7.307l2.403-4.742h8.783l1.013,4.742h4.599
				h2.209h4.327l3.481-11.991c0.149-0.571,0.296-1.191,0.439-1.854c0.142-0.666,0.276-1.368,0.402-2.114
				c0.081,0.631,0.168,1.258,0.265,1.879c0.098,0.626,0.209,1.246,0.334,1.866l2.35,12.214h4.066l5.73-12.231
				c0.057-0.127,0.142-0.316,0.256-0.567c0.606-1.273,1.037-2.33,1.288-3.177c-0.045,0.664-0.08,1.323-0.103,1.981
				c-0.023,0.662-0.036,1.326-0.036,2.003l0.069,11.991h6.195L168.666,50.543z M126.119,65.351l2.659-5.754
				c0.114-0.253,0.269-0.639,0.471-1.16c0.201-0.521,0.422-1.125,0.661-1.812c0.011,0.401,0.046,0.83,0.103,1.288
				c0.057,0.46,0.142,0.979,0.257,1.562l1.149,5.876H126.119z"/>
		</g>
		<path display="inline" fill="#231F20" d="M19.902,48.15l3.345-21.148h-6.164l1.053-6.398h19.429l-1.053,6.398h-5.881L27.288,48.15
			H19.902z"/>
		<path display="inline" fill="#231F20" d="M47.747,48.885c-1.967,0-3.755-0.27-5.364-0.81c-1.61-0.539-3.042-1.349-4.294-2.427
			c-1.315-1.154-2.341-2.579-3.081-4.271c-0.74-1.694-1.108-3.494-1.108-5.4c0-2.058,0.317-3.979,0.949-5.767
			c0.631-1.787,1.576-3.41,2.828-4.864c1.464-1.731,3.253-3.059,5.364-3.979c2.111-0.922,4.401-1.384,6.867-1.384
			c4.135,0,7.475,1.192,10.025,3.575c2.549,2.383,3.824,5.482,3.824,9.295c0,2.045-0.324,3.968-0.968,5.768
			c-0.646,1.799-1.587,3.42-2.828,4.863c-1.515,1.768-3.307,3.111-5.374,4.027C52.52,48.427,50.239,48.885,47.747,48.885z
			 M49.438,26.72c-2.244,0-4.121,0.809-5.636,2.427c-1.516,1.619-2.275,3.625-2.275,6.021c0,2.12,0.604,3.813,1.814,5.08
			c1.208,1.267,2.82,1.9,4.837,1.9c2.207,0,4.078-0.836,5.619-2.511c1.54-1.676,2.312-3.716,2.312-6.125
			c0-1.982-0.628-3.61-1.88-4.883C52.977,27.356,51.38,26.72,49.438,26.72z"/>
		<path display="inline" fill="#231F20" d="M69.374,48.15h-7.311l4.341-27.546h7.329c2.205,0,3.844,0.08,4.922,0.236
			c1.079,0.155,2.012,0.421,2.802,0.798c1.389,0.653,2.442,1.572,3.155,2.758c0.714,1.185,1.071,2.606,1.071,4.261
			c0,2.283-0.679,4.194-2.039,5.731c-1.359,1.536-3.229,2.499-5.608,2.887l6.688,10.875h-8.38l-5.316-10.517L69.374,48.15z
			 M71.721,33.192h2.312c1.454,0,2.567-0.333,3.344-0.996c0.777-0.666,1.166-1.626,1.166-2.88c0-1.179-0.364-2.035-1.091-2.568
			c-0.725-0.535-1.892-0.801-3.494-0.801h-1.091L71.721,33.192z"/>
		<path display="inline" fill="#231F20" d="M105.968,48.15l4.34-27.546h8.398l5.806,13.604c0.05,0.113,0.131,0.308,0.245,0.583
			c0.639,1.494,1.083,2.797,1.333,3.914v-0.697c0-0.501,0.029-1.056,0.085-1.665c0.057-0.607,0.143-1.345,0.255-2.209l2.122-13.529
			h7.348l-4.341,27.546h-8.079l-6.164-14.017c-0.45-1.017-0.793-1.857-1.024-2.522c-0.232-0.665-0.429-1.329-0.594-1.993v0.771
			c0,0.502-0.021,1.032-0.065,1.589c-0.043,0.559-0.122,1.302-0.235,2.231l-2.084,13.941H105.968z"/>
		<path display="inline" fill="#231F20" d="M138.677,48.15l3.346-21.148h-6.164l1.052-6.398h19.429l-1.052,6.398h-5.88
			l-3.346,21.148H138.677z"/>
		<path display="inline" fill="#231F20" d="M166.907,48.885c-1.966,0-3.754-0.27-5.365-0.81c-1.61-0.539-3.04-1.349-4.292-2.427
			c-1.317-1.154-2.344-2.579-3.082-4.271c-0.74-1.694-1.109-3.494-1.109-5.4c0-2.058,0.315-3.979,0.949-5.767
			c0.633-1.787,1.574-3.41,2.827-4.864c1.467-1.731,3.255-3.059,5.365-3.979c2.11-0.922,4.399-1.384,6.867-1.384
			c4.134,0,7.475,1.192,10.024,3.575c2.55,2.383,3.825,5.482,3.825,9.295c0,2.045-0.322,3.968-0.967,5.768
			c-0.646,1.799-1.59,3.42-2.829,4.863c-1.516,1.768-3.307,3.111-5.374,4.027C171.679,48.427,169.399,48.885,166.907,48.885z
			 M168.599,26.72c-2.243,0-4.121,0.809-5.638,2.427c-1.515,1.619-2.272,3.625-2.272,6.021c0,2.12,0.603,3.813,1.812,5.08
			c1.209,1.267,2.82,1.9,4.838,1.9c2.204,0,4.079-0.836,5.618-2.511c1.541-1.676,2.312-3.716,2.312-6.125
			c0-1.982-0.627-3.61-1.879-4.883C172.136,27.356,170.54,26.72,168.599,26.72z"/>
		<ellipse display="inline" opacity="0.2" fill="#231F20" cx="95.35" cy="46.886" rx="7.229" ry="1.265"/>
		<g id="logo_1_" display="inline">
			<g opacity="0.8">
				<path fill="#231F20" d="M109.619,18.707c0,0-5.04-2.557-6.176-3.451c-1.131-0.893-1.278-2.604,0.312-2.574
					c0,0,6.429,1.082,7.986,1.695c1.557,0.613,1.513,1.888,0.928,3.085C112.083,18.657,110.719,19.215,109.619,18.707z"/>
			</g>
			<g opacity="0.8">
				<path fill="#231F20" d="M94.533,11.867c0,0,5.248,2.105,6.665,2.371c1.419,0.265,2.802-0.754,1.733-1.931
					c0,0-5.049-4.122-6.539-4.889c-1.488-0.769-2.417,0.106-2.933,1.334C92.947,9.98,93.425,11.376,94.533,11.867z"/>
			</g>
			<g>
				<path fill="#231F20" d="M99.553,30.287c-0.345,0.395-0.784,0.592-1.315,0.592c-0.423,0-0.762-0.128-1.018-0.385
					c-0.253-0.258-0.38-0.604-0.38-1.038c0-0.59,0.174-1.089,0.521-1.499c0.21-0.245,0.446-0.406,0.708-0.505
					c-0.265-0.064-0.544-0.108-0.855-0.108c-0.993,0-1.835,0.418-2.528,1.256c-0.694,0.837-1.039,1.858-1.039,3.063
					c0,0.89,0.254,1.599,0.757,2.123c0.509,0.528,1.183,0.79,2.022,0.79c1.061,0,1.933-0.403,2.614-1.21
					c0.683-0.809,1.026-1.844,1.026-3.107c0-0.306-0.041-0.581-0.101-0.842C99.888,29.744,99.762,30.044,99.553,30.287z"/>
				<path fill="#231F20" d="M104.729,23.34c-1.019-0.965-2.237-1.648-3.639-2.072l2.288-5.799c0.765-0.199,1.333-0.889,1.333-1.715
					c0-0.984-0.796-1.779-1.778-1.779c-0.982,0-1.777,0.795-1.777,1.779c0,0.407,0.143,0.778,0.374,1.079l-2.381,6.035
					c-0.542-0.064-1.101-0.107-1.689-0.107c-3.282,0-5.974,1.035-8.08,3.105c-2.104,2.07-3.157,4.717-3.157,7.941
					c0,2.835,0.894,5.105,2.679,6.812c1.784,1.705,4.162,2.558,7.131,2.558c3.357,0,6.099-1.029,8.229-3.085
					c2.131-2.058,3.196-4.68,3.196-7.866C107.455,27.354,106.545,25.059,104.729,23.34z M99.722,34.112
					c-0.896,1.06-2.039,1.589-3.429,1.589c-1.102,0-1.986-0.344-2.65-1.035c-0.665-0.689-0.996-1.618-0.996-2.784
					c0-1.582,0.454-2.92,1.362-4.017c0.907-1.099,2.015-1.646,3.317-1.646c1.152,0,2.064,0.341,2.734,1.025
					c0.67,0.684,1.005,1.615,1.005,2.794C101.064,31.695,100.618,33.052,99.722,34.112z"/>
			</g>
		</g>
	</g>
</g>
<g id="blades">
	<g opacity="0.6">
		<path fill="#FFFFFF" d="M111.601,13.963c0,0-6.078-3.083-7.448-4.162c-1.365-1.077-1.541-3.14,0.376-3.104
			c0,0,7.753,1.305,9.631,2.044s1.825,2.277,1.12,3.721C114.573,13.904,112.928,14.577,111.601,13.963z"/>
		<path fill="#FFFFFF" d="M93.406,5.715c0,0,6.328,2.539,8.038,2.858c1.711,0.319,3.38-0.909,2.091-2.329
			c0,0-6.09-4.971-7.886-5.896c-1.795-0.927-2.916,0.128-3.538,1.609C91.494,3.439,92.07,5.123,93.406,5.715z"/>
	</g>
</g>
<g id="toronto">
	<g>
		<path fill="#58595B" d="M3.399,49.473l4.033-25.505H0l1.27-7.716h23.433l-1.271,7.716h-7.093l-4.032,25.505H3.399z"/>
		<path fill="#58595B" d="M36.98,50.36c-2.372,0-4.528-0.325-6.469-0.977c-1.942-0.65-3.67-1.626-5.179-2.927
			c-1.586-1.392-2.823-3.11-3.716-5.151c-0.892-2.043-1.337-4.214-1.337-6.513c0-2.482,0.383-4.8,1.145-6.956
			c0.762-2.155,1.9-4.111,3.41-5.865c1.766-2.088,3.923-3.689,6.47-4.799c2.546-1.112,5.308-1.669,8.282-1.669
			c4.986,0,9.015,1.438,12.091,4.312c3.074,2.875,4.611,6.611,4.611,11.21c0,2.467-0.391,4.785-1.168,6.957
			c-0.779,2.169-1.914,4.125-3.41,5.865c-1.827,2.132-3.988,3.751-6.481,4.856C42.737,49.807,39.987,50.36,36.98,50.36z
			 M39.02,23.627c-2.705,0-4.97,0.976-6.796,2.928c-1.829,1.952-2.744,4.371-2.744,7.261c0,2.557,0.729,4.6,2.188,6.127
			c1.456,1.528,3.401,2.292,5.834,2.292c2.661,0,4.918-1.009,6.776-3.028c1.857-2.021,2.788-4.482,2.788-7.387
			c0-2.391-0.757-4.354-2.268-5.889S41.362,23.627,39.02,23.627z"/>
		<path fill="#58595B" d="M63.063,49.473h-8.817l5.235-33.221h8.838c2.659,0,4.637,0.096,5.937,0.285
			c1.301,0.187,2.426,0.508,3.379,0.962c1.675,0.788,2.945,1.896,3.806,3.326c0.86,1.429,1.292,3.143,1.292,5.139
			c0,2.753-0.819,5.058-2.459,6.911c-1.64,1.853-3.894,3.014-6.764,3.482l8.065,13.115H71.469L65.057,36.79L63.063,49.473z
			 M65.895,31.434h2.788c1.753,0,3.096-0.401,4.032-1.201c0.938-0.804,1.406-1.962,1.406-3.474c0-1.422-0.439-2.454-1.315-3.097
			c-0.875-0.646-2.282-0.966-4.214-0.966h-1.315L65.895,31.434z"/>
		<path fill="#58595B" d="M107.197,49.473l5.234-33.221h10.129l7.002,16.407c0.06,0.137,0.158,0.372,0.295,0.703
			c0.771,1.802,1.306,3.373,1.608,4.72v-0.841c0-0.604,0.035-1.273,0.103-2.008c0.068-0.732,0.172-1.622,0.307-2.665l2.559-16.316
			h8.862l-5.235,33.221h-9.743l-7.434-16.904c-0.543-1.226-0.956-2.239-1.235-3.042c-0.279-0.802-0.518-1.603-0.716-2.403v0.929
			c0,0.606-0.024,1.245-0.078,1.917c-0.053,0.674-0.146,1.57-0.284,2.69l-2.513,16.813H107.197z"/>
		<path fill="#58595B" d="M146.646,49.473l4.034-25.505h-7.433l1.269-7.716h23.432l-1.269,7.716h-7.092l-4.035,25.505H146.646z"/>
		<path fill="#58595B" d="M180.691,50.36c-2.37,0-4.526-0.325-6.47-0.977c-1.942-0.65-3.667-1.626-5.177-2.927
			c-1.588-1.392-2.827-3.11-3.717-5.151c-0.893-2.043-1.338-4.214-1.338-6.513c0-2.482,0.381-4.8,1.146-6.956
			c0.763-2.155,1.897-4.111,3.409-5.865c1.769-2.088,3.926-3.689,6.47-4.799c2.545-1.112,5.306-1.669,8.282-1.669
			c4.985,0,9.016,1.438,12.09,4.312c3.076,2.875,4.613,6.611,4.613,11.21c0,2.467-0.39,4.785-1.167,6.957
			c-0.779,2.169-1.918,4.125-3.411,5.865c-1.828,2.132-3.988,3.751-6.481,4.856C186.447,49.807,183.697,50.36,180.691,50.36z
			 M182.731,23.627c-2.704,0-4.97,0.976-6.799,2.928c-1.827,1.952-2.741,4.371-2.741,7.261c0,2.557,0.728,4.6,2.187,6.127
			c1.458,1.528,3.401,2.292,5.835,2.292c2.658,0,4.919-1.009,6.775-3.028c1.858-2.021,2.788-4.482,2.788-7.387
			c0-2.391-0.757-4.354-2.267-5.889C186.998,24.396,185.073,23.627,182.731,23.627z"/>
	</g>
</g>
<g id="drone">
	<g>
		<path fill="#58595B" d="M99.46,27.929c-0.415,0.476-0.944,0.715-1.586,0.715c-0.51,0-0.919-0.154-1.228-0.465
			c-0.306-0.311-0.459-0.729-0.459-1.252c0-0.711,0.21-1.313,0.63-1.807c0.253-0.295,0.537-0.49,0.853-0.609
			c-0.319-0.077-0.656-0.131-1.031-0.131c-1.197,0-2.213,0.505-3.049,1.515c-0.837,1.01-1.253,2.241-1.253,3.695
			c0,1.073,0.307,1.929,0.914,2.56c0.614,0.637,1.426,0.952,2.438,0.952c1.279,0,2.331-0.485,3.153-1.46
			c0.823-0.976,1.237-2.224,1.237-3.747c0-0.368-0.049-0.7-0.122-1.016C99.864,27.275,99.713,27.636,99.46,27.929z"/>
		<path fill="#58595B" d="M105.702,19.551c-1.229-1.164-2.697-1.988-4.389-2.499l2.759-6.993c0.923-0.24,1.607-1.071,1.607-2.068
			c0-1.187-0.961-2.145-2.145-2.145c-1.186,0-2.144,0.958-2.144,2.145c0,0.491,0.172,0.938,0.45,1.301l-2.871,7.279
			c-0.654-0.078-1.328-0.13-2.038-0.13c-3.958,0-7.205,1.249-9.744,3.745c-2.537,2.497-3.807,5.689-3.807,9.578
			c0,3.419,1.077,6.157,3.23,8.215c2.151,2.056,5.02,3.085,8.6,3.085c4.049,0,7.356-1.241,9.925-3.72
			c2.57-2.482,3.854-5.645,3.854-9.487C108.991,24.392,107.894,21.625,105.702,19.551z M99.664,32.543
			c-1.08,1.277-2.459,1.917-4.135,1.917c-1.329,0-2.396-0.415-3.196-1.249c-0.802-0.831-1.201-1.951-1.201-3.357
			c0-1.907,0.547-3.521,1.643-4.845c1.094-1.324,2.43-1.985,4-1.985c1.39,0,2.49,0.412,3.297,1.236
			c0.809,0.825,1.212,1.948,1.212,3.369C101.283,29.627,100.745,31.264,99.664,32.543z"/>
	</g>
</g>
<g id="skycam">
	<g>
		<path fill="#FFFFFF" d="M34.168,64.58c-0.399-0.231-0.965-0.534-1.695-0.907c-2.069-1.062-3.104-2.023-3.104-2.881
			c0-0.69,0.275-1.273,0.826-1.75c0.554-0.478,1.243-0.715,2.069-0.715c0.759,0,1.587,0.227,2.481,0.683
			c0.897,0.456,1.891,1.154,2.982,2.093l3.474-5.987c-1.38-1.16-2.844-2.037-4.397-2.631c-1.55-0.595-3.166-0.892-4.852-0.892
			c-3.185,0-5.788,0.954-7.811,2.861c-2.019,1.903-3.03,4.355-3.03,7.354c0,1.642,0.442,3.037,1.326,4.186
			c0.882,1.144,2.517,2.341,4.903,3.58c0.138,0.072,0.323,0.167,0.558,0.291c2.454,1.284,3.685,2.479,3.685,3.584
			c0,0.814-0.306,1.473-0.912,1.971c-0.606,0.492-1.421,0.746-2.441,0.746c-1.229,0-2.417-0.314-3.569-0.936
			c-1.151-0.621-2.361-1.615-3.632-2.981l-4.199,6.069c1.421,1.699,3.013,2.979,4.779,3.844c1.765,0.863,3.661,1.295,5.69,1.295
			c3.861,0,6.917-0.971,9.164-2.908c2.249-1.945,3.372-4.537,3.372-7.781c0-1.839-0.411-3.367-1.238-4.593
			C37.77,66.954,36.293,65.755,34.168,64.58z"/>
		<path fill="#FFFFFF" d="M88.667,52.36l-5.379,7.665c-0.137,0.206-0.318,0.549-0.547,1.025c-0.229,0.476-0.528,1.15-0.902,2.019
			c-0.179-0.563-0.36-1.1-0.549-1.606c-0.183-0.503-0.366-0.955-0.546-1.354l-3.311-7.749h-4.488h-4.533h-5.938L50.95,65.039
			l2.049-12.679h-8.112l-4.777,30.331h8.048l2.112-13.364l8.482,13.364h9.576L58.026,67.338l11.916-11.964l6.994,13.786l-2.13,13.53
			h8.151l2.11-13.447L98.001,52.36H88.667z"/>
		<path fill="#FFFFFF" d="M182.812,52.36h-8.938l-5.419,11.913c-0.469,1.049-0.831,1.924-1.086,2.619
			c-0.256,0.699-0.461,1.352-0.609,1.959c-0.098-0.855-0.197-1.684-0.3-2.478c-0.105-0.792-0.218-1.55-0.342-2.269l-2.029-11.745
			h-8.999l-7.697,25.185l-5.34-25.185h-10.139l-14.573,29.146l1.111-6.916c-1.256,0.527-2.451,0.916-3.59,1.182
			c-1.137,0.262-2.244,0.395-3.321,0.395c-2.494,0-4.427-0.674-5.792-2.021c-1.367-1.348-2.048-3.25-2.048-5.71
			c0-2.72,0.812-4.956,2.44-6.712c1.628-1.753,3.698-2.631,6.207-2.631c1.476,0,2.896,0.261,4.263,0.777
			c1.364,0.519,2.627,1.284,3.787,2.291l1.364-8.371c-1.433-0.718-2.902-1.255-4.408-1.615c-1.501-0.359-3.054-0.538-4.653-0.538
			c-2.812,0-5.354,0.489-7.624,1.468c-2.271,0.981-4.163,2.398-5.68,4.248c-1.299,1.59-2.281,3.354-2.95,5.295
			c-0.667,1.94-1.002,3.982-1.002,6.117c0,4.436,1.3,7.994,3.899,10.674c2.601,2.68,6.059,4.02,10.377,4.02
			c1.448,0,2.796-0.088,4.044-0.26c1.107-0.152,2.119-0.377,3.058-0.656l-0.074,0.15h8.812l2.898-5.719h10.593l1.222,5.719h5.547
			h2.664h5.219l4.198-14.462c0.18-0.689,0.356-1.437,0.53-2.235c0.171-0.804,0.333-1.65,0.485-2.55
			c0.098,0.761,0.202,1.517,0.319,2.266c0.118,0.755,0.252,1.503,0.403,2.251l2.835,14.73h4.903l6.912-14.752
			c0.067-0.153,0.17-0.382,0.309-0.685c0.73-1.535,1.25-2.81,1.553-3.831c-0.055,0.801-0.096,1.596-0.123,2.39
			c-0.028,0.799-0.044,1.6-0.044,2.416l0.084,14.462h7.471L182.812,52.36z M131.5,70.218l3.207-6.939
			c0.138-0.305,0.324-0.771,0.568-1.399c0.242-0.629,0.509-1.356,0.797-2.186c0.013,0.483,0.056,1.001,0.124,1.554
			c0.068,0.555,0.171,1.181,0.31,1.884l1.387,7.087H131.5z"/>
	</g>
</g>
</svg>
